REM DIRINDEX 1\2\3,1\2\4,1\2\5,1\2\6
REM DIRNAME cjc157,folder01,folder02,folder03,folder04,folder05
TITLE ""
FILE "172 172.mp3" MP3
  TRACK 01 AUDIO
    TITLE "0:"
    INDEX 01 00:00:00
  TRACK 02 AUDIO
    TITLE "3:cjc157_6257"
    INDEX 01 00:00:09
  TRACK 03 AUDIO
    TITLE "0:"
    INDEX 01 00:01:38
  TRACK 04 AUDIO
    TITLE "4:cjc157_6258"
    INDEX 01 00:02:12
  TRACK 05 AUDIO
    TITLE "0:"
    INDEX 01 00:03:64
  TRACK 06 AUDIO
    TITLE "5:cjc157_6259"
    INDEX 01 00:04:35
  TRACK 07 AUDIO
    TITLE "0:"
    INDEX 01 00:08:32
  TRACK 08 AUDIO
    TITLE "3:cjc157_6260"
    INDEX 01 00:09:02
  TRACK 09 AUDIO
    TITLE "0:"
    INDEX 01 00:10:04
  TRACK 10 AUDIO
    TITLE "4:cjc157_6261"
    INDEX 01 00:10:51
  TRACK 11 AUDIO
    TITLE "0:"
    INDEX 01 00:12:11
  TRACK 12 AUDIO
    TITLE "5:cjc157_6262"
    INDEX 01 00:12:54
  TRACK 13 AUDIO
    TITLE "0:"
    INDEX 01 00:15:62
  TRACK 14 AUDIO
    TITLE "3:cjc157_6263"
    INDEX 01 00:16:30
  TRACK 15 AUDIO
    TITLE "0:"
    INDEX 01 00:17:74
  TRACK 16 AUDIO
    TITLE "4:cjc157_6264"
    INDEX 01 00:18:42
  TRACK 17 AUDIO
    TITLE "0:"
    INDEX 01 00:20:20
  TRACK 18 AUDIO
    TITLE "5:cjc157_6265"
    INDEX 01 00:20:67
  TRACK 19 AUDIO
    TITLE "0:"
    INDEX 01 00:24:69
  TRACK 20 AUDIO
    TITLE "3:cjc157_6266"
    INDEX 01 00:25:37
  TRACK 21 AUDIO
    TITLE "0:"
    INDEX 01 00:26:54
  TRACK 22 AUDIO
    TITLE "4:cjc157_6267"
    INDEX 01 00:27:24
  TRACK 23 AUDIO
    TITLE "0:"
    INDEX 01 00:28:45
  TRACK 24 AUDIO
    TITLE "5:cjc157_6268"
    INDEX 01 00:29:21
  TRACK 25 AUDIO
    TITLE "0:"
    INDEX 01 00:32:27
  TRACK 26 AUDIO
    TITLE "5:cjc157_6269"
    INDEX 01 00:33:01
  TRACK 27 AUDIO
    TITLE "0:"
    INDEX 01 00:36:15
  TRACK 28 AUDIO
    TITLE "3:cjc157_6270"
    INDEX 01 00:36:60
  TRACK 29 AUDIO
    TITLE "0:"
    INDEX 01 00:38:30
  TRACK 30 AUDIO
    TITLE "4:cjc157_6271"
    INDEX 01 00:39:00
  TRACK 31 AUDIO
    TITLE "0:"
    INDEX 01 00:40:54
  TRACK 32 AUDIO
    TITLE "5:cjc157_6272"
    INDEX 01 00:41:30
  TRACK 33 AUDIO
    TITLE "0:"
    INDEX 01 00:44:09
  TRACK 34 AUDIO
    TITLE "3:cjc157_6273"
    INDEX 01 00:44:54
  TRACK 35 AUDIO
    TITLE "0:"
    INDEX 01 00:46:43
  TRACK 36 AUDIO
    TITLE "4:cjc157_6274"
    INDEX 01 00:47:13
  TRACK 37 AUDIO
    TITLE "0:"
    INDEX 01 00:49:20
  TRACK 38 AUDIO
    TITLE "5:cjc157_6275"
    INDEX 01 00:49:65
  TRACK 39 AUDIO
    TITLE "0:"
    INDEX 01 00:55:18
  TRACK 40 AUDIO
    TITLE "3:cjc157_6276"
    INDEX 01 00:55:69
  TRACK 41 AUDIO
    TITLE "0:"
    INDEX 01 00:57:13
  TRACK 42 AUDIO
    TITLE "4:cjc157_6277"
    INDEX 01 00:57:58
  TRACK 43 AUDIO
    TITLE "0:"
    INDEX 01 00:59:30
  TRACK 44 AUDIO
    TITLE "5:cjc157_6278"
    INDEX 01 01:00:08
  TRACK 45 AUDIO
    TITLE "0:"
    INDEX 01 01:06:59
  TRACK 46 AUDIO
    TITLE "3:cjc157_6279"
    INDEX 01 01:07:31
  TRACK 47 AUDIO
    TITLE "0:"
    INDEX 01 01:08:35
  TRACK 48 AUDIO
    TITLE "4:cjc157_6280"
    INDEX 01 01:09:05
  TRACK 49 AUDIO
    TITLE "0:"
    INDEX 01 01:10:57
  TRACK 50 AUDIO
    TITLE "5:cjc157_6281"
    INDEX 01 01:11:27
  TRACK 51 AUDIO
    TITLE "0:"
    INDEX 01 01:14:49
  TRACK 52 AUDIO
    TITLE "3:cjc157_6282"
    INDEX 01 01:15:17
  TRACK 53 AUDIO
    TITLE "0:"
    INDEX 01 01:16:71
  TRACK 54 AUDIO
    TITLE "4:cjc157_6283"
    INDEX 01 01:17:39
  TRACK 55 AUDIO
    TITLE "0:"
    INDEX 01 01:19:17
  TRACK 56 AUDIO
    TITLE "5:cjc157_6284"
    INDEX 01 01:19:62
  TRACK 57 AUDIO
    TITLE "0:"
    INDEX 01 01:21:69
  TRACK 58 AUDIO
    TITLE "3:cjc157_6285"
    INDEX 01 01:22:37
  TRACK 59 AUDIO
    TITLE "0:"
    INDEX 01 01:23:73
  TRACK 60 AUDIO
    TITLE "4:cjc157_6286"
    INDEX 01 01:24:41
  TRACK 61 AUDIO
    TITLE "0:"
    INDEX 01 01:26:15
  TRACK 62 AUDIO
    TITLE "5:cjc157_6287"
    INDEX 01 01:26:64
  TRACK 63 AUDIO
    TITLE "0:"
    INDEX 01 01:29:50
